$MeshFormat
4.1 0 8
$EndMeshFormat
$Entities
4 4 1 0
1 0 0 0 0 
2 3.141592653589793 0 0 0 
3 3.141592653589793 3.141592653589793 0 0 
4 0 3.141592653589793 0 0 
1 0 0 0 3.141592653589793 0 0 1 3 2 1 -2 
2 3.141592653589793 0 0 3.141592653589793 3.141592653589793 0 1 2 2 2 -3 
3 0 3.141592653589793 0 3.141592653589793 3.141592653589793 0 1 4 2 3 -4 
4 0 0 0 0 3.141592653589793 0 1 1 2 4 -1 
1 0 0 0 3.141592653589793 3.141592653589793 0 1 1 4 1 2 3 4 
$EndEntities
$Nodes
9 98 1 98
0 1 0 1
1
0 0 0
0 2 0 1
2
3.141592653589793 0 0
0 3 0 1
3
3.141592653589793 3.141592653589793 0
0 4 0 1
4
0 3.141592653589793 0
1 1 0 7
5
6
7
8
9
10
11
0.3926990816979535 0 0
0.7853981633955825 0 0
1.178097245093266 0 0
1.570796326790949 0 0
1.963495408490627 0 0
2.356194490190349 0 0
2.748893571890071 0 0
1 2 0 7
12
13
14
15
16
17
18
3.141592653589793 0.3926990816979535 0
3.141592653589793 0.7853981633955825 0
3.141592653589793 1.178097245093266 0
3.141592653589793 1.570796326790949 0
3.141592653589793 1.963495408490627 0
3.141592653589793 2.356194490190349 0
3.141592653589793 2.748893571890071 0
1 3 0 7
19
20
21
22
23
24
25
2.748893571891807 3.141592653589793 0
2.356194490194341 3.141592653589793 0
1.963495408496527 3.141592653589793 0
1.570796326798844 3.141592653589793 0
1.178097245099166 3.141592653589793 0
0.785398163399444 3.141592653589793 0
0.392699081699722 3.141592653589793 0
1 4 0 7
26
27
28
29
30
31
32
0 2.748893571891807 0
0 2.356194490194341 0
0 1.963495408496527 0
0 1.570796326798844 0
0 1.178097245099166 0
0 0.785398163399444 0
0 0.392699081699722 0
2 1 0 66
33
34
35
36
37
38
39
40
41
42
43
44
45
46
47
48
49
50
51
52
53
54
55
56
57
58
59
60
61
62
63
64
65
66
67
68
69
70
71
72
73
74
75
76
77
78
79
80
81
82
83
84
85
86
87
88
89
90
91
92
93
94
95
96
97
98
0.3478526554825212 1.369436375728652 0
1.767145867640788 0.3400873807938782 0
2.760645827191603 1.787185551955702 0
1.374446785949005 2.801505272795915 0
2.158868335051321 2.813317627831311 0
0.3715331827089304 2.102435403267694 0
2.801505272796802 0.981747704244424 0
0.9735539705589483 0.3361976716854521 0
2.550880020014745 0.332526604502155 0
0.3439578754537178 0.6388179394481726 0
2.762183964115463 2.554399588791346 0
0.5890486225495831 2.801505272795013 0
2.159567614169148 0.3388272514120876 0
1.954819171144642 0.6749821986461679 0
1.56935028723452 0.6793093344302614 0
1.756828806673408 1.014269935986326 0
1.366718312564515 1.015518653214889 0
1.569261842578816 1.359436623891089 0
1.925975813300522 1.359369721369055 0
1.749834492823709 1.706358200153276 0
1.371305809437921 1.701271636783696 0
1.567387601571278 2.041650289593424 0
1.949239696899893 2.047935581297649 0
1.177699425504181 2.04064337718214 0
0.9811579048961183 1.700595874839472 0
1.767145867640267 2.380611665552498 0
0.7853981633962287 2.040524284758992 0
0.9843165266899758 2.363643436821031 0
2.154759843075483 2.357276947056238 0
2.374459223423791 2.017731475076626 0
0.5892718430041513 1.712160195260112 0
0.7853981633965709 1.360349523172963 0
0.5588051992451304 1.015406878898204 0
0.9471399644984289 0.9986588409390784 0
0.7463424935171389 0.6695464261097619 0
2.402273015671395 0.7196320819713788 0
2.801505272795166 2.159844949340753 0
2.44234525831555 1.654214356646183 0
2.710807875121041 1.376651407439871 0
2.456434749332083 1.084449735170369 0
0.9817477042490408 2.801505272795167 0
1.167260143159929 0.6752068732121776 0
1.767145867647001 2.801505272796023 0
1.372009062707316 0.3389298778603114 0
1.170163666228728 1.355971858806865 0
1.374446785942584 2.380611665552302 0
0.3248902643173012 2.534127993420791 0
2.538866412563563 2.849658118387024 0
2.814554384469474 0.5904063494730922 0
0.6004631474652926 0.3230402762274919 0
2.489169888767646 2.336436434617041 0
0.6317395348633199 2.355964055834284 0
2.117203050584254 1.012845881915295 0
0.2655767379745163 1.767145867647686 0
2.110648937977626 1.703609242838433 0
0.2429630931416869 0.981747704249305 0
0.2874756798901325 2.854116973700125 0
2.854116973700125 2.854116973699661 0
0.2874756798896645 0.2874756798901384 0
2.854116973699655 0.287475679889665 0
2.293902614105179 1.365190057563201 0
1.178097245099424 2.591058469177104 0
1.570796326798061 2.591058469177403 0
1.963495408496672 2.591058469178274 0
0.8173193599339684 2.590850190364649 0
2.352941140428326 2.592929212820241 0
$EndNodes
$Elements
5 194 1 194
1 1 1 8
1 1 5 
2 5 6 
3 6 7 
4 7 8 
5 8 9 
6 9 10 
7 10 11 
8 11 2 
1 2 1 8
9 2 12 
10 12 13 
11 13 14 
12 14 15 
13 15 16 
14 16 17 
15 17 18 
16 18 3 
1 3 1 8
17 3 19 
18 19 20 
19 20 21 
20 21 22 
21 22 23 
22 23 24 
23 24 25 
24 25 4 
1 4 1 8
25 4 26 
26 26 27 
27 27 28 
28 28 29 
29 29 30 
30 30 31 
31 31 32 
32 32 1 
2 1 2 162
33 39 68 81 
34 68 39 72 
35 62 35 69 
36 59 38 63 
37 35 62 70 
38 63 38 86 
39 14 15 71 
40 65 42 67 
41 67 40 74 
42 42 65 88 
43 15 35 71 
44 39 14 71 
45 64 33 65 
46 63 33 64 
47 66 49 77 
48 66 67 74 
49 68 41 81 
50 35 70 71 
51 64 66 77 
52 49 66 74 
53 71 70 93 
54 72 71 93 
55 62 69 83 
56 38 59 84 
57 64 65 66 
58 44 79 84 
59 44 84 97 
60 68 72 85 
61 39 71 72 
62 66 65 67 
63 40 67 82 
64 34 45 46 
65 35 16 69 
66 34 9 45 
67 36 23 73 
68 74 40 76 
69 8 9 34 
70 15 16 35 
71 22 23 36 
72 29 30 33 
73 45 41 68 
74 22 36 75 
75 40 7 76 
76 37 21 75 
77 8 34 76 
78 10 41 45 
79 17 43 69 
80 24 44 73 
81 21 22 75 
82 34 46 47 
83 7 8 76 
84 16 17 69 
85 9 10 45 
86 23 24 73 
87 34 47 76 
88 47 74 76 
89 46 45 68 
90 10 11 41 
91 17 18 43 
92 24 25 44 
93 31 32 42 
94 47 46 48 
95 27 28 38 
96 20 21 37 
97 47 48 49 
98 47 49 74 
99 49 48 50 
100 13 14 39 
101 6 7 40 
102 50 48 51 
103 49 50 77 
104 50 51 52 
105 50 53 77 
106 50 52 53 
107 54 52 55 
108 53 54 56 
109 54 55 58 
110 57 56 59 
111 53 52 54 
112 57 59 63 
113 53 56 57 
114 57 63 64 
115 53 57 77 
116 57 64 77 
117 61 55 62 
118 58 55 61 
119 56 54 78 
120 54 58 78 
121 59 56 60 
122 60 56 78 
123 70 62 87 
124 43 80 98 
125 83 43 98 
126 26 27 79 
127 19 20 80 
128 12 13 81 
129 33 63 86 
130 5 6 82 
131 6 40 82 
132 65 33 88 
133 27 38 79 
134 20 37 80 
135 13 39 81 
136 87 51 93 
137 67 42 82 
138 51 48 85 
139 46 68 85 
140 29 33 86 
141 38 28 86 
142 62 55 87 
143 52 51 87 
144 33 30 88 
145 31 42 88 
146 3 19 90 
147 4 26 89 
148 2 12 92 
149 1 5 91 
150 18 3 90 
151 25 4 89 
152 11 2 92 
153 32 1 91 
154 51 85 93 
155 69 43 83 
156 61 62 83 
157 59 60 84 
158 70 87 93 
159 48 46 85 
160 79 38 84 
161 28 29 86 
162 55 52 87 
163 85 72 93 
164 26 79 89 
165 19 80 90 
166 12 81 92 
167 30 31 88 
168 44 25 89 
169 43 18 90 
170 41 11 92 
171 42 32 91 
172 5 82 91 
173 60 94 97 
174 36 73 94 
175 95 58 96 
176 94 78 95 
177 58 61 96 
178 75 95 96 
179 78 58 95 
180 36 94 95 
181 37 75 96 
182 60 78 94 
183 75 36 95 
184 94 73 97 
185 73 44 97 
186 79 44 89 
187 80 43 90 
188 81 41 92 
189 96 61 98 
190 37 96 98 
191 82 42 91 
192 80 37 98 
193 84 60 97 
194 61 83 98 
$EndElements
