$MeshFormat
4.1 0 8
$EndMeshFormat
$Entities
4 4 1 0
1 0 0 0 0 
2 3.141592653589793 0 0 0 
3 3.141592653589793 3.141592653589793 0 0 
4 0 3.141592653589793 0 0 
1 0 0 0 3.141592653589793 0 0 1 3 2 1 -2 
2 3.141592653589793 0 0 3.141592653589793 3.141592653589793 0 1 2 2 2 -3 
3 0 3.141592653589793 0 3.141592653589793 3.141592653589793 0 1 4 2 3 -4 
4 0 0 0 0 3.141592653589793 0 1 1 2 4 -1 
1 0 0 0 3.141592653589793 3.141592653589793 0 1 1 4 1 2 3 4 
$EndEntities
$Nodes
9 30 1 30
0 1 0 1
1
0 0 0
0 2 0 1
2
3.141592653589793 0 0
0 3 0 1
3
3.141592653589793 3.141592653589793 0
0 4 0 1
4
0 3.141592653589793 0
1 1 0 3
5
6
7
0.7853981633955825 0 0
1.570796326790949 0 0
2.356194490190349 0 0
1 2 0 3
8
9
10
3.141592653589793 0.7853981633955825 0
3.141592653589793 1.570796326790949 0
3.141592653589793 2.356194490190349 0
1 3 0 3
11
12
13
2.356194490194341 3.141592653589793 0
1.570796326798844 3.141592653589793 0
0.785398163399444 3.141592653589793 0
1 4 0 3
14
15
16
0 2.356194490194341 0
0 1.570796326798844 0
0 0.785398163399444 0
2 1 0 14
17
18
19
20
21
22
23
24
25
26
27
28
29
30
1.997760090772347 0.6698856241428846 0
2.478583645765045 1.962446928035616 0
1.210768635823783 2.342098170519803 0
0.6030256893409363 1.180079734712853 0
2.519805479152498 1.188881777271783 0
1.788166165396903 1.553045471590536 0
1.975131534125854 2.460498486056981 0
1.212678635450096 0.792053619685758 0
0.5928997229366214 1.930370527268403 0
1.081507769789668 1.559529504755471 0
2.566641293809649 0.57495135977911 0
2.566641293810696 2.566641293809626 0
0.5178133044319696 2.582369699032427 0
0.5749513597791154 0.5749513597801501 0
$EndNodes
$Elements
5 58 1 58
1 1 1 4
1 1 5 
2 5 6 
3 6 7 
4 7 2 
1 2 1 4
5 2 8 
6 8 9 
7 9 10 
8 10 3 
1 3 1 4
9 3 11 
10 11 12 
11 12 13 
12 13 4 
1 4 1 4
13 4 14 
14 14 15 
15 15 16 
16 16 1 
2 1 2 42
17 19 22 23 
18 17 22 24 
19 22 19 26 
20 24 22 26 
21 22 18 23 
22 17 21 22 
23 20 24 26 
24 6 7 17 
25 9 10 18 
26 12 13 19 
27 15 16 20 
28 19 25 26 
29 8 9 21 
30 11 12 23 
31 14 15 25 
32 5 6 24 
33 21 18 22 
34 9 18 21 
35 12 19 23 
36 6 17 24 
37 15 20 25 
38 10 3 28 
39 13 4 29 
40 7 2 27 
41 16 1 30 
42 2 8 27 
43 3 11 28 
44 1 5 30 
45 4 14 29 
46 8 21 27 
47 11 23 28 
48 14 25 29 
49 5 24 30 
50 17 7 27 
51 19 13 29 
52 18 10 28 
53 20 16 30 
54 21 17 27 
55 23 18 28 
56 25 19 29 
57 24 20 30 
58 25 20 26 
$EndElements
